<svg width="16" height="16" viewBox="0 0 16 16" fill="none" xmlns="http://www.w3.org/2000/svg">
<path fill-rule="evenodd" clip-rule="evenodd" d="M9.56381 10.645C10.4658 10.1101 11.0705 9.1266 11.0705 8.0019C11.0705 6.30607 9.69578 4.9313 7.99991 4.9313C6.30408 4.9313 4.92934 6.30607 4.92934 8.0019C4.92934 9.12667 5.53408 10.1102 6.43614 10.645C5.05694 11.2173 4.01921 12.5243 3.74088 14.1181C3.64601 14.6611 3.95484 15.1051 4.50144 15.177C5.11838 15.2582 6.18081 15.3333 8.00008 15.3333C9.81934 15.3333 10.8818 15.2582 11.4987 15.177C12.0453 15.1051 12.3541 14.6611 12.2593 14.1181C11.9809 12.5242 10.9431 11.2172 9.56381 10.645Z" fill="#0077B6"/>
<path fill-rule="evenodd" clip-rule="evenodd" d="M7.99996 3.04285C5.27849 3.04285 3.05422 5.261 3.05422 8.0195C3.05422 8.83393 3.24782 9.60007 3.59056 10.2764C3.73546 10.5623 3.77706 10.902 3.57246 11.1488C3.35649 11.4093 2.99407 11.723 2.42446 11.8913C2.0695 11.9962 1.70299 11.808 1.52889 11.4813C0.978366 10.4485 0.666626 9.269 0.666626 8.0195C0.666626 3.96863 3.93989 0.666666 7.99996 0.666666C12.06 0.666666 15.3333 3.96863 15.3333 8.0195C15.3333 9.269 15.0216 10.4485 14.471 11.4813C14.2969 11.808 13.9304 11.9962 13.5755 11.8913C13.0059 11.723 12.6434 11.4093 12.4275 11.1488C12.2229 10.902 12.2645 10.5623 12.4094 10.2764C12.7521 9.60007 12.9457 8.83393 12.9457 8.0195C12.9457 5.261 10.7214 3.04285 7.99996 3.04285Z" fill="#07BEB8"/>
</svg>
