<svg width="16" height="16" viewBox="0 0 16 16" fill="none" xmlns="http://www.w3.org/2000/svg">
<path d="M7.99996 0.666672C12.0501 0.666672 15.3333 3.9499 15.3333 8C15.3333 12.0501 12.0501 15.3333 7.99996 15.3333C3.94986 15.3333 0.666626 12.0501 0.666626 8C0.666626 3.9499 3.94986 0.666672 7.99996 0.666672Z" fill="#0077B6"/>
<path fill-rule="evenodd" clip-rule="evenodd" d="M8.13883 7.92775C8.17795 7.96763 8.17795 8.03231 8.13885 8.07221L6.83692 9.39989C6.64269 9.59798 6.60278 9.90787 6.77894 10.1228C6.91934 10.2941 7.08668 10.4647 7.25811 10.5876C7.45994 10.7324 7.71926 10.6645 7.90281 10.4963C8.55862 9.89529 9.42583 8.99909 9.86183 8.41011C10.046 8.16131 10.046 7.83865 9.86181 7.58985C9.42581 7.00091 8.55862 6.10473 7.90281 5.50374C7.71926 5.33553 7.45994 5.26767 7.25811 5.41241C7.0867 5.53534 6.91934 5.70592 6.77896 5.8772C6.60278 6.09215 6.64269 6.40204 6.83694 6.60013L8.13883 7.92775Z" fill="#07BEB8"/>
</svg>
