<svg width="44" height="44" viewBox="0 0 44 44" fill="none" xmlns="http://www.w3.org/2000/svg">
<path d="M0.46765 39.0666C0.71349 41.584 2.72033 43.4202 5.24502 43.5736C8.6075 43.778 14.0826 44 22 44C29.9174 44 35.3925 43.778 38.755 43.5736C41.2797 43.4202 43.2865 41.584 43.5323 39.0666C43.7743 36.5895 44 32.9515 44 28C44 21.8337 43.6499 17.7043 43.3545 15.3176C43.1513 13.6762 42.1498 12.2896 40.7013 11.4913C36.2942 9.0626 26.5608 4 22 4C17.4392 4 7.70584 9.0626 3.29872 11.4913C1.8502 12.2896 0.84869 13.6762 0.64553 15.3176C0.35011 17.7043 0 21.8337 0 28C0 32.9515 0.22574 36.5895 0.46765 39.0666Z" fill="#0077B6"/>
<path d="M10.2034 0.21417C7.58524 0.32413 5.46803 2.22854 5.24768 4.83977C5.10936 6.47897 5 8.5497 5 11C5 14.6976 5.24903 17.531 5.47085 19.3212C5.64542 20.7302 6.50697 21.9296 7.75784 22.6011C11.1886 24.4429 18.2944 28 22 28C25.7056 28 32.8114 24.4429 36.2422 22.6011C37.493 21.9296 38.3546 20.7302 38.5291 19.3213C38.751 17.531 39 14.6976 39 11C39 8.5497 38.8906 6.47897 38.7523 4.83977C38.532 2.22854 36.4148 0.32413 33.7966 0.21417C31.1639 0.10361 27.2865 0 22 0C16.7135 0 12.8361 0.10361 10.2034 0.21417Z" fill="#07BEB8"/>
<path d="M28.6002 18.9064C29.3612 18.8776 29.9559 18.3621 29.988 17.6012C29.9955 17.4231 30 17.2233 30 17C30 16.7736 29.9954 16.5715 29.9877 16.3919C29.9554 15.638 29.368 15.1278 28.614 15.0979C27.4363 15.0511 25.1902 15 21 15C16.8262 15 14.5813 15.0488 13.3998 15.0936C12.6388 15.1224 12.0441 15.6379 12.012 16.3988C12.0045 16.5769 12 16.7767 12 17C12 17.2233 12.0045 17.4231 12.012 17.6012C12.0441 18.3621 12.6388 18.8776 13.3998 18.9064C14.5813 18.9512 16.8262 19 21 19C25.1738 19 27.4187 18.9512 28.6002 18.9064Z" fill="#0077B6"/>
<path d="M22.6156 10.9287C23.3969 10.8951 23.9732 10.3369 23.9932 9.5551C23.9975 9.3888 24 9.2042 24 9C24 8.792 23.9974 8.6044 23.993 8.4359C23.9728 7.66226 23.4048 7.10978 22.6317 7.07486C21.7671 7.0358 20.3371 7 18 7C15.6773 7 14.2506 7.034 13.3844 7.07128C12.6031 7.10491 12.0268 7.66309 12.0068 8.4449C12.0025 8.6112 12 8.7958 12 9C12 9.2042 12.0025 9.3888 12.0068 9.5551C12.0268 10.3369 12.6031 10.8951 13.3844 10.9287C14.2506 10.966 15.6773 11 18 11C20.3227 11 21.7494 10.966 22.6156 10.9287Z" fill="#0077B6"/>
</svg>
