<svg width="12" height="15" viewBox="0 0 12 15" fill="none" xmlns="http://www.w3.org/2000/svg">
<path fill-rule="evenodd" clip-rule="evenodd" d="M6.2086 3.66019C6.08677 3.56252 5.91347 3.56252 5.79163 3.66019L2.34943 6.41969C2.0244 6.68029 1.5888 6.78215 1.22447 6.58009C1.04252 6.47915 0.844378 6.34379 0.667087 6.16649C0.496087 5.99549 0.364067 5.80509 0.264357 5.62852C0.0533542 5.25489 0.162578 4.80469 0.448888 4.48505C1.94267 2.81747 3.8964 1.06392 5.2281 0.234163C5.70013 -0.0599671 6.2856 -0.0293837 6.74983 0.276926C8.08157 1.15562 10.048 2.82739 11.55 4.48622C11.838 4.80435 11.947 5.25489 11.7361 5.62859C11.6364 5.80522 11.5044 5.99565 11.3334 6.16662C11.1561 6.34389 10.9579 6.47925 10.7759 6.58015C10.4116 6.78215 9.976 6.68029 9.65093 6.41972L6.2086 3.66019ZM6.2086 11.3398C6.08677 11.4374 5.91347 11.4374 5.79163 11.3397L2.34943 8.58022C2.0244 8.31965 1.5888 8.21779 1.22447 8.41985C1.04252 8.52075 0.844378 8.65615 0.667087 8.83345C0.496087 9.00445 0.364067 9.19485 0.264357 9.37142C0.0533542 9.74505 0.162578 10.1953 0.448888 10.5149C1.94267 12.1825 3.8964 13.936 5.2281 14.7658C5.70013 15.0599 6.2856 15.0293 6.74983 14.723C8.08157 13.8443 10.048 12.1726 11.55 10.5137C11.838 10.1956 11.947 9.74502 11.7361 9.37135C11.6364 9.19472 11.5044 9.00425 11.3334 8.83329C11.1561 8.65605 10.9579 8.52069 10.7759 8.41979C10.4116 8.21779 9.976 8.31965 9.65093 8.58022L6.2086 11.3398Z" fill="#07BEB8"/>
</svg>
