<svg width="6" height="8" viewBox="0 0 6 8" fill="none" xmlns="http://www.w3.org/2000/svg">
<path fill-rule="evenodd" clip-rule="evenodd" d="M3.06484 4.05853C3.0947 4.02658 3.09474 3.97711 3.0649 3.94511C2.84112 3.70491 1.92972 2.72766 0.77307 1.50128C0.597873 1.31552 0.494385 1.05993 0.614396 0.834556C0.667186 0.735403 0.744387 0.625248 0.85727 0.515099C1.00229 0.373591 1.1473 0.289548 1.2684 0.239633C1.45694 0.161914 1.6617 0.227666 1.82544 0.349231C3.07537 1.27721 4.3129 2.61763 4.98477 3.39021C5.29172 3.7432 5.29179 4.2606 4.98487 4.6136C4.31297 5.38636 3.07519 6.72671 1.82505 7.65171C1.66162 7.77265 1.45749 7.838 1.26945 7.7607C1.14814 7.71083 1.00272 7.62671 0.857287 7.48481C0.744487 7.37473 0.667287 7.26466 0.614478 7.16556C0.494325 6.94013 0.597805 6.68438 0.77312 6.49856C1.92957 5.27278 2.8409 4.2982 3.06484 4.05853Z" fill="#0077B6"/>
</svg>
