<svg width="16" height="16" viewBox="0 0 16 16" fill="none" xmlns="http://www.w3.org/2000/svg">
<path d="M15.3332 7.99984C15.3332 12.0499 12.0499 15.3332 7.99984 15.3332C3.94974 15.3332 0.666504 12.0499 0.666504 7.99984C0.666504 3.94974 3.94974 0.666504 7.99984 0.666504C12.0499 0.666504 15.3332 3.94974 15.3332 7.99984Z" fill="#0077B6"/>
<path fill-rule="evenodd" clip-rule="evenodd" d="M8.11767 8.04863C8.0526 8.11373 7.94707 8.11373 7.88197 8.04866L5.71577 5.88246C5.39257 5.55929 4.88697 5.49289 4.5363 5.78599C4.2568 6.01959 3.97853 6.29803 3.77793 6.58326C3.54177 6.91906 3.6525 7.35053 3.92693 7.65593C4.9075 8.74709 6.3697 10.19 7.33067 10.9154C7.7366 11.2219 8.26303 11.2219 8.66897 10.9154C9.62987 10.19 11.092 8.74709 12.0726 7.65593C12.347 7.35053 12.4578 6.91906 12.2216 6.58326C12.021 6.29806 11.7427 6.01959 11.4633 5.78603C11.1126 5.49289 10.607 5.55929 10.2838 5.88249L8.11767 8.04863Z" fill="#07BEB8"/>
</svg>
