<svg width="54" height="54" viewBox="0 0 54 54" fill="none" xmlns="http://www.w3.org/2000/svg">
<path d="M27 53.6673C41.7276 53.6673 53.6666 41.7282 53.6666 27.0007C53.6666 12.2731 41.7276 0.333984 27 0.333984C12.2724 0.333984 0.333313 12.2731 0.333313 27.0007C0.333313 41.7282 12.2724 53.6673 27 53.6673Z" fill="#07BEB8"/>
<path d="M33.9856 14.3732C35.0533 13.3905 36.6866 13.444 37.7077 14.4764L39.2418 16.0274C40.2629 17.0597 40.3158 18.7112 39.3438 19.7908C37.8968 21.398 35.6085 23.8966 32.7705 26.8496C35.7436 29.9346 38.1394 32.5498 39.6357 34.2118C40.6077 35.2914 40.5549 36.9429 39.5338 37.9752L37.9997 39.5262C36.9786 40.5586 35.3453 40.6121 34.2776 39.6294C32.6345 38.1172 30.0494 35.6962 27 32.6921C23.9505 35.6962 21.3654 38.1172 19.7224 39.6294C18.6546 40.6121 17.0213 40.5586 16.0002 39.5262L14.4661 37.9752C13.445 36.9429 13.3922 35.2914 14.3642 34.2118C15.8605 32.5498 18.2564 29.9346 21.2294 26.8496C18.3914 23.8966 16.1032 21.398 14.6561 19.7908C13.6841 18.7112 13.737 17.0597 14.7581 16.0274L16.2922 14.4764C17.3133 13.444 18.9466 13.3905 20.0144 14.3732C21.6048 15.8369 24.0776 18.152 27 21.0233C29.9224 18.152 32.3952 15.8369 33.9856 14.3732Z" fill="#0077B6"/>
</svg>
