<svg width="22" height="22" viewBox="0 0 22 22" fill="none" xmlns="http://www.w3.org/2000/svg">
<path d="M11 0C4.92485 0 0 4.92485 0 11C-5e-06 17.0751 4.92485 22 11 22C17.0751 22 22 17.0751 22 11C22 4.92485 17.0751 0 11 0Z" fill="#0077B6"/>
<path d="M17 8.0106C17 6.3479 15.6521 5 13.9894 5C13.4607 5 12.9939 5.3448 12.8385 5.8501L12.2814 7.6606C12.0494 8.41455 12.2823 9.23445 12.8759 9.7539L13.1852 10.0245C12.718 11.5299 11.5299 12.718 10.0246 13.1852L9.7539 12.8759C9.23445 12.2823 8.41455 12.0494 7.6606 12.2814L5.8501 12.8385C5.3448 12.9939 5 13.4607 5 13.9894C5 15.6521 6.3479 17 8.0106 17H8.6C13.2392 17 17 13.2393 17 8.6001V8.0106Z" fill="#07BEB8"/>
</svg>
