<svg width="17" height="16" viewBox="0 0 17 16" fill="none" xmlns="http://www.w3.org/2000/svg">
<path d="M8.49998 15.3332C4.44989 15.3332 1.16665 12.0499 1.16665 7.99984C1.16665 3.94975 4.44989 0.666504 8.49998 0.666504C12.5501 0.666504 15.8333 3.94975 15.8333 7.99984C15.8333 12.0499 12.5501 15.3332 8.49998 15.3332Z" fill="#07BEB8"/>
<path d="M3.5 7.99984C3.5 7.23514 3.98937 6.67237 4.75403 6.6668C4.77993 6.6666 4.80637 6.6665 4.83333 6.6665C4.8603 6.6665 4.88673 6.6666 4.91263 6.6668C5.6773 6.67237 6.16667 7.23514 6.16667 7.99984C6.16667 8.76454 5.6773 9.3273 4.91263 9.33287C4.88673 9.33307 4.8603 9.33317 4.83333 9.33317C4.80637 9.33317 4.77993 9.33307 4.75403 9.33287C3.98937 9.3273 3.5 8.76454 3.5 7.99984Z" fill="#0077B6"/>
<path d="M7.16663 7.99984C7.16663 7.23514 7.65599 6.67237 8.42066 6.6668C8.44656 6.6666 8.47299 6.6665 8.49996 6.6665C8.52693 6.6665 8.55336 6.6666 8.57926 6.6668C9.34393 6.67237 9.83329 7.23514 9.83329 7.99984C9.83329 8.76454 9.34393 9.3273 8.57926 9.33287C8.55336 9.33307 8.52693 9.33317 8.49996 9.33317C8.47299 9.33317 8.44656 9.33307 8.42066 9.33287C7.65599 9.3273 7.16663 8.76454 7.16663 7.99984Z" fill="#0077B6"/>
<path d="M10.8333 7.99984C10.8333 7.23514 11.3227 6.67237 12.0873 6.6668C12.1132 6.6666 12.1397 6.6665 12.1666 6.6665C12.1936 6.6665 12.22 6.6666 12.2459 6.6668C13.0106 6.67237 13.5 7.23514 13.5 7.99984C13.5 8.76454 13.0106 9.3273 12.2459 9.33287C12.22 9.33307 12.1936 9.33317 12.1666 9.33317C12.1397 9.33317 12.1132 9.33307 12.0873 9.33287C11.3227 9.3273 10.8333 8.76454 10.8333 7.99984Z" fill="#0077B6"/>
</svg>
