<svg width="63" height="48" viewBox="0 0 63 48" fill="none" xmlns="http://www.w3.org/2000/svg">
<path d="M7.2623 45.4698C6.57227 45.4698 6.01418 46.0355 6.01418 46.7349C6.01418 47.4343 6.57227 48 7.2623 48C7.95234 48 8.51043 47.4343 8.51043 46.7349C8.51043 46.0355 7.95234 45.4698 7.2623 45.4698ZM7.59216 33.8131C4.80884 33.8131 3.92981 33.3685 3.92981 32.3781C3.92981 31.142 5.19933 30.3486 7.12679 30.3486C8.59066 30.3486 9.88515 30.7697 11.0085 31.61C11.374 31.8829 11.7163 32.0058 12.1068 32.0058C13.157 32.0058 13.815 31.2883 13.815 30.298C13.815 29.6546 13.5707 29.1594 13.1802 28.8377C11.7894 27.6504 9.837 27.0323 7.39603 27.0323C3.00263 27.0323 0.244273 29.1594 0.244273 32.5245C0.244273 35.8896 2.12359 37.2505 7.05547 37.2993C9.985 37.3246 10.8391 37.7945 10.8391 38.8589C10.8391 40.1457 9.64265 40.8885 7.56898 40.8885C5.68966 40.8885 4.02966 40.3192 2.8582 39.28C2.46772 38.9583 2.1022 38.8354 1.71171 38.8354C0.661503 38.8354 0.00356293 39.5529 0.00356293 40.5433C0.00356293 41.1126 0.174734 41.5571 0.492115 41.8788C1.90785 43.4132 4.22757 44.2048 7.30153 44.2048C11.9392 44.2048 14.5264 42.2493 14.5264 38.7125C14.5264 35.3962 12.574 33.8131 7.59395 33.8131H7.59216ZM24.0193 27.0341C19.1623 27.0341 16.4039 29.8787 16.4039 34.9516V42.1264C16.4039 43.3391 17.0636 44.0566 18.1852 44.0566C19.3067 44.0566 19.9664 43.3391 19.9664 42.1264V39.2565H28.0222V42.0776C28.0222 43.3138 28.7051 44.0566 29.8284 44.0566C30.9517 44.0566 31.6596 43.3138 31.6596 42.0776V34.9516C31.6596 29.8805 28.8763 27.0341 24.0193 27.0341ZM28.0222 35.9402H19.9664V34.8016C19.9664 31.9317 21.3822 30.3974 23.9943 30.3974C26.6065 30.3974 28.0222 31.9317 28.0222 34.8016V35.9402ZM45.3034 37.4005V37.3517C47.3289 36.6595 48.4041 35.0257 48.4041 32.5028C48.4041 29.1142 46.4267 27.3323 42.7411 27.3323H36.1742C34.9546 27.3323 34.2218 28.0751 34.2218 29.3112V42.1029C34.2218 43.3156 34.9047 44.0584 36.053 44.0584C37.2013 44.0584 37.8592 43.3156 37.8592 42.1029V38.1198H41.3736L45.1821 43.2415C45.5726 43.762 46.0612 44.0584 46.6959 44.0584C47.8192 44.0584 48.5503 43.3662 48.5503 42.2276C48.5503 41.7578 48.3791 41.3114 48.1116 40.9662L45.3051 37.4041L45.3034 37.4005ZM42.3489 34.7528H37.8574V30.6956H42.3489C43.8627 30.6956 44.6918 31.413 44.6918 32.7251C44.6918 34.0372 43.8609 34.7547 42.3489 34.7547V34.7528ZM61.1688 27.1823C60.0455 27.1823 59.3626 27.9251 59.3626 29.1612V37.4005C59.3626 39.627 58.2161 40.8397 56.1407 40.8397C54.4807 40.8397 53.3573 40.0481 52.9918 38.4396C52.8207 37.6969 52.1859 37.1041 51.2587 37.1041C50.1604 37.1041 49.4525 37.8957 49.4525 38.8607C49.4525 39.0577 49.4775 39.2312 49.5006 39.3812C50.0141 42.4481 52.4783 44.2048 56.1407 44.2048C60.6571 44.2048 63 41.83 63 37.4005V29.1612C63 27.9251 62.3171 27.1823 61.1688 27.1823Z" fill="#07BEB8"/>
<path d="M33.7529 10.3971L32.1321 13.6791V11.4905H31.0533L32.6723 8.20673V10.3971H33.7529Z" fill="#07BEB8"/>
<path d="M41.4609 12.7682H38.132C37.8538 12.7682 37.6096 12.9616 37.5489 13.2381V13.2417C36.9213 15.1538 34.812 16.4171 32.8239 16.4171H30.7538C29.2632 16.4171 28.0543 15.1918 28.0543 13.6809H25.3548C24.8573 13.6809 24.4543 13.2725 24.4543 12.7682C24.4543 12.264 24.8573 11.8556 25.3548 11.8556H28.0543V10.0321H25.3548C24.8573 10.0321 24.4543 9.62361 24.4543 9.11939C24.4543 8.61517 24.8573 8.20673 25.3548 8.20673H28.0543C28.0543 6.69587 29.2632 5.47055 30.7538 5.47055H32.8239C34.812 5.47055 36.9213 6.73382 37.5489 8.64589V8.6495C37.6096 8.92421 37.8556 9.11939 38.1338 9.11939H41.4627C41.9085 9.11939 42.233 8.69288 42.1224 8.25372C40.9385 3.50968 36.7002 0 31.6525 0C25.69 0 20.8597 4.89946 20.858 10.9429C20.858 16.9864 25.6882 21.8858 31.6525 21.8858C36.7002 21.8858 40.9385 18.3761 42.1207 13.6321C42.2294 13.1929 41.9067 12.7664 41.4609 12.7664V12.7682Z" fill="#0077B6"/>
</svg>
