<svg width="44" height="44" viewBox="0 0 44 44" fill="none" xmlns="http://www.w3.org/2000/svg">
<path d="M25 4C25 8.1091 28.2236 11.477 32.1179 11.9427C33.1983 12.0719 34.1768 12.8167 34.6818 13.7805C35.6844 15.6943 37.6897 17 40 17C40.2306 17 40.4581 16.987 40.6819 16.9617C42.0123 16.8112 43.5559 17.3802 43.7548 18.7043C43.9163 19.7794 44 20.8799 44 22C44 34.1503 34.1503 44 22 44C9.8497 44 0 34.1503 0 22C0 9.8497 9.8497 0 22 0C22.4001 0 22.7977 0.01068 23.1926 0.03178C24.5371 0.1036 25.254 1.58025 25.073 2.91439C25.0249 3.26939 25 3.63179 25 4Z" fill="#0077B6"/>
<path d="M9 17C9 14.1324 10.8351 12.0219 13.7027 12.0011C13.7998 12.0004 13.8989 12 14 12C14.1011 12 14.2002 12.0004 14.2973 12.0011C17.1649 12.0219 19 14.1324 19 17C19 19.8676 17.1649 21.9781 14.2973 21.9989C14.2002 21.9996 14.1011 22 14 22C13.8989 22 13.7998 21.9996 13.7027 21.9989C10.8351 21.9781 9 19.8676 9 17Z" fill="#07BEB8"/>
<path d="M17 34C17 31.7059 18.4681 30.0176 20.7621 30.0009C20.8398 30.0003 20.9191 30 21 30C21.0809 30 21.1602 30.0003 21.2379 30.0009C23.5319 30.0176 25 31.7059 25 34C25 36.2941 23.5319 37.9824 21.2379 37.9991C21.1602 37.9997 21.0809 38 21 38C20.9191 38 20.8398 37.9997 20.7621 37.9991C18.4681 37.9824 17 36.2941 17 34Z" fill="#07BEB8"/>
<path d="M31 23C31 21.2795 32.1011 20.0132 33.8216 20.0006C33.8799 20.0002 33.9393 20 34 20C34.0607 20 34.1201 20.0002 34.1784 20.0006C35.8989 20.0132 37 21.2795 37 23C37 24.7205 35.8989 25.9868 34.1784 25.9994C34.1201 25.9998 34.0607 26 34 26C33.9393 26 33.8799 25.9998 33.8216 25.9994C32.1011 25.9868 31 24.7205 31 23Z" fill="#07BEB8"/>
</svg>
