<svg width="40" height="41" viewBox="0 0 40 41" fill="none" xmlns="http://www.w3.org/2000/svg">
<path d="M3.68009 1.52983C1.92293 1.84314 0.71393 3.21799 0.51915 4.999C0.26763 7.2988 0 11.234 0 17.5672C0 23.9004 0.26763 27.8356 0.51915 30.1354C0.71393 31.9164 1.92293 33.2913 3.68009 33.6046C5.24171 33.883 7.5882 34.1877 11 34.3928V38.4883C11 40.172 12.9399 41.108 14.2494 40.0562L21.0031 34.6319C29.0623 34.5911 33.7521 34.0624 36.3199 33.6046C38.0771 33.2913 39.2861 31.9164 39.4809 30.1354C39.7324 27.8356 40 23.9004 40 17.5672C40 11.234 39.7324 7.2988 39.4809 4.99899C39.2861 3.21799 38.0771 1.84313 36.3199 1.52982C33.6474 1.0533 28.6762 0.5 20 0.5C11.3238 0.5 6.3526 1.0533 3.68009 1.52983Z" fill="#07BEB8"/>
<path d="M16.1271 16.9941C15.8322 17.2733 15.6904 17.6515 15.7017 18.1285H15.7004V20.3451C15.7004 21.216 16.3857 21.9221 17.2311 21.9221H18.6624C19.5078 21.9221 20.1932 21.216 20.1932 20.3451V19.8573L20.4076 19.7543C21.3677 19.2867 22.2191 18.8014 22.9619 18.2982C23.7046 17.795 24.3068 17.2475 24.7685 16.6559C25.2494 16.062 25.5876 15.4042 25.7831 14.6823C25.9958 13.9385 26.0521 13.0923 25.9519 12.1436C25.7474 10.2066 24.99 8.73163 23.6795 7.71853C22.3882 6.70323 20.6106 6.32244 18.3468 6.57603C17.5602 6.66423 16.8299 6.82603 16.156 7.06153C15.4799 7.27723 14.8985 7.56233 14.4119 7.91693C13.9252 8.27143 13.5513 8.68323 13.2902 9.15243C13.0483 9.61953 12.9577 10.1396 13.0182 10.7128C13.0647 11.154 13.2092 11.5439 13.4355 11.8731C13.9115 12.5653 14.8621 12.3383 15.5485 11.8697C15.7204 11.7523 15.8961 11.6425 16.0755 11.5402C16.641 11.1969 17.3171 10.9811 18.1037 10.893C18.967 10.7963 19.6039 10.9449 20.0143 11.3389C20.4439 11.7307 20.6858 12.1836 20.7401 12.6975C20.8006 13.2707 20.679 13.7743 20.3754 14.2082C20.0697 14.6225 19.6406 14.9705 19.088 15.2524L17.4302 16.0981C16.8968 16.3779 16.4624 16.6765 16.1271 16.9941Z" fill="#0077B6"/>
<path d="M15.1163 26.6966C15.1163 25.8616 15.3575 25.1856 15.84 24.6687C16.3417 24.1518 17.0268 23.8933 17.8952 23.8933C18.7636 23.8933 19.439 24.1518 19.9215 24.6687C20.4232 25.1856 20.6741 25.8616 20.6741 26.6966C20.6741 27.5316 20.4232 28.2076 19.9215 28.7245C19.439 29.2414 18.7636 29.4999 17.8952 29.4999C17.0268 29.4999 16.3417 29.2414 15.84 28.7245C15.3575 28.2076 15.1163 27.5316 15.1163 26.6966Z" fill="#0077B6"/>
</svg>
