<svg width="16" height="16" viewBox="0 0 16 16" fill="none" xmlns="http://www.w3.org/2000/svg">
<path d="M0.666626 8C0.666626 3.9499 3.94986 0.666672 7.99996 0.666672C12.0501 0.666672 15.3333 3.9499 15.3333 8C15.3333 12.0501 12.0501 15.3333 7.99996 15.3333C3.94986 15.3333 0.666626 12.0501 0.666626 8Z" fill="#0077B6"/>
<path fill-rule="evenodd" clip-rule="evenodd" d="M7.88211 7.9512C7.94718 7.8861 8.05271 7.8861 8.11781 7.9512L10.284 10.1174C10.6072 10.4405 11.1128 10.5069 11.4635 10.2138C11.743 9.98024 12.0212 9.70181 12.2218 9.41657C12.458 9.08077 12.3473 8.6493 12.0728 8.3439C11.0923 7.25274 9.63008 5.80984 8.66911 5.0844C8.26318 4.77797 7.73674 4.77797 7.33081 5.08444C6.36991 5.80987 4.90774 7.25274 3.92718 8.3439C3.65274 8.6493 3.54201 9.08077 3.77818 9.41657C3.97874 9.70177 4.25704 9.98024 4.53651 10.2138C4.88721 10.5069 5.39281 10.4405 5.71601 10.1173L7.88211 7.9512Z" fill="#07BEB8"/>
</svg>
