<svg width="14" height="14" viewBox="0 0 14 14" fill="none" xmlns="http://www.w3.org/2000/svg">
<path fill-rule="evenodd" clip-rule="evenodd" d="M11.4627 9.44757C12.0152 8.53967 12.3334 7.47351 12.3334 6.33301C12.3334 3.01931 9.64707 0.333008 6.33337 0.333008C3.01967 0.333008 0.333374 3.01931 0.333374 6.33301C0.333374 9.64671 3.01967 12.333 6.33337 12.333C7.47387 12.333 8.54004 12.0148 9.44794 11.4623C9.50274 11.5283 9.55734 11.5942 9.61187 11.66C10.1755 12.34 10.7292 13.008 11.3666 13.6657C11.7533 14.0647 12.3304 14.1224 12.7434 13.7507C12.8897 13.619 13.0608 13.4573 13.2592 13.2589C13.4576 13.0605 13.6194 12.8893 13.7511 12.743C14.1227 12.33 14.0651 11.7529 13.6661 11.3663C13.0083 10.7288 12.3403 10.1751 11.6604 9.61151C11.5946 9.55698 11.5287 9.50237 11.4627 9.44757Z" fill="#0077B6"/>
<path d="M6.33337 10.333C8.54251 10.333 10.3334 8.54215 10.3334 6.33301C10.3334 4.12387 8.54251 2.33301 6.33337 2.33301C4.12424 2.33301 2.33337 4.12387 2.33337 6.33301C2.33337 8.54215 4.12424 10.333 6.33337 10.333Z" fill="#07BEB8"/>
</svg>
