<svg width="570" height="570" viewBox="0 0 570 570" fill="none" xmlns="http://www.w3.org/2000/svg">
<g opacity="0.5">
<path d="M356.25 270.788L306.342 356.25V299.259H273.125L322.978 213.75V270.788H356.25Z" fill="white"/>
<path d="M551.704 332.539H462.562C455.114 332.539 448.572 337.576 446.949 344.777V344.871C430.143 394.67 373.659 427.571 320.423 427.571H264.99C225.074 427.571 192.702 395.658 192.702 356.309H120.415C107.094 356.309 96.3034 345.671 96.3034 332.539C96.3034 319.407 107.094 308.77 120.415 308.77H192.702V261.277H120.415C107.094 261.277 96.3034 250.64 96.3034 237.508C96.3034 224.376 107.094 213.738 120.415 213.738H192.702C192.702 174.389 225.074 142.476 264.99 142.476H320.423C373.659 142.476 430.143 175.377 446.949 225.176V225.27C448.572 232.424 455.161 237.508 462.61 237.508H551.751C563.688 237.508 572.378 226.4 569.417 214.962C537.714 91.4071 424.222 0 289.054 0C129.391 0 0.0477459 127.603 0 285C0 442.397 129.344 570 289.054 570C424.222 570 537.714 478.593 569.37 355.038C572.282 343.6 563.64 332.492 551.704 332.492V332.539Z" fill="white"/>
</g>
</svg>
