<svg width="60" height="60" viewBox="0 0 60 60" fill="none" xmlns="http://www.w3.org/2000/svg">
<path d="M19.0744 0.759296C19.0744 0.759296 15.4851 2.13268 8.88765 8.73268C2.31444 15.3085 0.935997 18.9056 0.925984 18.9319C0.765784 22.0653 0.666397 25.7299 0.666397 29.9993C0.666397 42.7381 1.5512 50.0911 2.29612 54.0243C2.77468 56.5511 4.74552 58.2829 7.3014 58.5589C10.7515 58.9313 16.8395 59.3327 27.0559 59.3327C37.2723 59.3327 43.3603 58.9313 46.8103 58.5589C49.3661 58.2829 51.3371 56.5511 51.8156 54.0243C52.5605 50.0911 53.4453 42.7381 53.4453 29.9993C53.4453 17.2605 52.5605 9.90763 51.8156 5.97439C51.3371 3.44759 49.3661 1.71571 46.8103 1.4398C43.3603 1.06738 37.2723 0.666016 27.0559 0.666016C24.0508 0.666016 21.4029 0.700802 19.0744 0.759296Z" fill="#07BEB8"/>
<path d="M0.927094 18.9324C5.14876 19.9947 10.1332 20.0652 14.4383 18.7495C16.2584 18.1932 17.6776 16.7748 18.2919 14.9728C19.8223 10.4838 20.2003 4.98914 19.0756 0.759766C19.0756 0.759766 15.4861 2.13315 8.88881 8.73315C2.29144 15.3332 0.927094 18.9324 0.927094 18.9324Z" fill="#0077B6"/>
<path d="M57.6553 30.8432C59.8927 28.606 59.8927 24.9787 57.6553 22.7415L53.2579 18.3439C51.0207 16.1067 47.3933 16.1067 45.1561 18.344L29.0112 34.4888C27.9369 35.5632 27.3333 37.0203 27.3333 38.5398V45.8016C27.3333 47.3836 28.6157 48.666 30.1977 48.666H37.4596C38.9789 48.666 40.4361 48.0624 41.5105 46.9882L57.6553 30.8432Z" fill="#0077B6"/>
</svg>
