<svg width="5" height="8" viewBox="0 0 5 8" fill="none" xmlns="http://www.w3.org/2000/svg">
<path fill-rule="evenodd" clip-rule="evenodd" d="M2.7917 3.89161C2.73301 3.95143 2.73301 4.04845 2.79167 4.1083L4.74456 6.09982C5.03591 6.39696 5.09577 6.86179 4.83153 7.18418C4.62093 7.44114 4.36992 7.69697 4.11277 7.88139C3.81003 8.09852 3.42105 7.99671 3.14573 7.74441C2.16201 6.84291 0.86119 5.49862 0.20719 4.61515C-0.0690685 4.24195 -0.0690684 3.75796 0.20722 3.38476C0.86122 2.50135 2.16201 1.15709 3.14573 0.25559C3.42105 0.0032866 3.81003 -0.0985173 4.11277 0.118605C4.36988 0.302999 4.62093 0.558857 4.8315 0.815788C5.09577 1.13821 5.0359 1.60304 4.74453 1.90018L2.7917 3.89161Z" fill="#07BEB8"/>
</svg>
