<svg width="5" height="8" viewBox="0 0 5 8" fill="none" xmlns="http://www.w3.org/2000/svg">
<path fill-rule="evenodd" clip-rule="evenodd" d="M2.2083 3.89161C2.26699 3.95143 2.26699 4.04845 2.20833 4.1083L0.255439 6.09982C-0.0359055 6.39696 -0.0957671 6.86179 0.168471 7.18418C0.379069 7.44114 0.630085 7.69697 0.887231 7.88139C1.18996 8.09852 1.57895 7.99671 1.85427 7.74441C2.83799 6.84291 4.13881 5.49862 4.79281 4.61515C5.06907 4.24195 5.06907 3.75796 4.79278 3.38476C4.13878 2.50135 2.83799 1.15709 1.85427 0.25559C1.57895 0.0032866 1.18996 -0.0985173 0.887231 0.118605C0.630115 0.302999 0.379069 0.558857 0.168502 0.815788C-0.0957668 1.13821 -0.0359051 1.60304 0.255469 1.90018L2.2083 3.89161Z" fill="#07BEB8"/>
</svg>
