<svg width="22" height="22" viewBox="0 0 22 22" fill="none" xmlns="http://www.w3.org/2000/svg">
<path d="M11 22C4.92487 22 0 17.0751 0 11C0 4.92487 4.92487 0 11 0C17.0751 0 22 4.92487 22 11C22 17.0751 17.0751 22 11 22Z" fill="#0077B6"/>
<path d="M5.0265 10.4843C5.0897 9.91625 5.5947 9.61615 6.16555 9.58735C6.98115 9.5462 8.4623 9.5 11 9.5C13.5377 9.5 15.0188 9.5462 15.8344 9.58735C16.4053 9.61615 16.9103 9.91625 16.9735 10.4843C16.9899 10.6316 17 10.8026 17 11C17 11.1974 16.9899 11.3684 16.9735 11.5157C16.9103 12.0838 16.4053 12.3839 15.8344 12.4127C15.0188 12.4538 13.5377 12.5 11 12.5C8.4623 12.5 6.98115 12.4538 6.16555 12.4127C5.5947 12.3839 5.0897 12.0838 5.0265 11.5157C5.0101 11.3683 5 11.1974 5 11C5 10.8026 5.0101 10.6317 5.0265 10.4843Z" fill="#07BEB8"/>
<path d="M16.9735 5.9843C16.9103 5.41625 16.4053 5.11615 15.8344 5.08735C15.0188 5.0462 13.5377 5 11 5C8.4623 5 6.98115 5.0462 6.16555 5.08735C5.5947 5.11615 5.0897 5.41625 5.0265 5.9843C5.0101 6.1317 5 6.3026 5 6.5C5 6.6974 5.0101 6.8683 5.0265 7.0157C5.0897 7.58375 5.5947 7.88385 6.16555 7.91265C6.98115 7.9538 8.4623 8 11 8C13.5377 8 15.0188 7.9538 15.8344 7.91265C16.4053 7.88385 16.9103 7.58375 16.9735 7.0157C16.9899 6.8683 17 6.6974 17 6.5C17 6.3026 16.9899 6.1317 16.9735 5.9843Z" fill="#07BEB8"/>
<path d="M16.9735 14.9843C16.9103 14.4162 16.4053 14.1161 15.8344 14.0873C15.0188 14.0462 13.5377 14 11 14C8.4623 14 6.98115 14.0462 6.16555 14.0873C5.5947 14.1161 5.0897 14.4162 5.0265 14.9843C5.0101 15.1317 5 15.3026 5 15.5C5 15.6974 5.0101 15.8683 5.0265 16.0157C5.0897 16.5837 5.5947 16.8838 6.16555 16.9126C6.98115 16.9538 8.4623 17 11 17C13.5377 17 15.0188 16.9538 15.8344 16.9126C16.4053 16.8838 16.9103 16.5837 16.9735 16.0157C16.9899 15.8683 17 15.6974 17 15.5C17 15.3026 16.9899 15.1317 16.9735 14.9843Z" fill="#07BEB8"/>
</svg>
