<svg width="22" height="22" viewBox="0 0 22 22" fill="none" xmlns="http://www.w3.org/2000/svg">
<path d="M0.233825 19.5333C0.356745 20.792 1.36016 21.7101 2.62251 21.7868C4.30375 21.889 7.0413 22 11 22C14.9587 22 17.6963 21.889 19.3775 21.7868C20.6399 21.7101 21.6432 20.792 21.7661 19.5333C21.8871 18.2948 22 16.4757 22 14C22 10.9169 21.8249 8.85215 21.6772 7.6588C21.5756 6.8381 21.0749 6.1448 20.3507 5.74565C18.1471 4.5313 13.2804 2 11 2C8.7196 2 3.85292 4.5313 1.64936 5.74565C0.9251 6.1448 0.424345 6.8381 0.322765 7.6588C0.175055 8.85215 0 10.9169 0 14C0 16.4757 0.11287 18.2948 0.233825 19.5333Z" fill="#0077B6"/>
<path d="M5.1017 0.107085C3.79262 0.162065 2.73402 1.11427 2.62384 2.41988C2.55468 3.23948 2.5 4.27485 2.5 5.5C2.5 7.3488 2.62451 8.7655 2.73542 9.6606C2.82271 10.3651 3.25349 10.9648 3.87892 11.3006C5.5943 12.2215 9.1472 14 11 14C12.8528 14 16.4057 12.2215 18.1211 11.3006C18.7465 10.9648 19.1773 10.3651 19.2645 9.66065C19.3755 8.7655 19.5 7.3488 19.5 5.5C19.5 4.27485 19.4453 3.23948 19.3762 2.41988C19.266 1.11427 18.2074 0.162065 16.8983 0.107085C15.582 0.051805 13.6432 0 11 0C8.35675 0 6.41805 0.051805 5.1017 0.107085Z" fill="#07BEB8"/>
<path d="M14.3001 9.4532C14.6806 9.4388 14.978 9.18105 14.994 8.8006C14.9978 8.71155 15 8.61165 15 8.5C15 8.3868 14.9977 8.28575 14.9938 8.19595C14.9777 7.819 14.684 7.5639 14.307 7.54895C13.7182 7.52555 12.5951 7.5 10.5 7.5C8.4131 7.5 7.29065 7.5244 6.6999 7.5468C6.3194 7.5612 6.02205 7.81895 6.006 8.1994C6.00225 8.28845 6 8.38835 6 8.5C6 8.61165 6.00225 8.71155 6.006 8.8006C6.02205 9.18105 6.3194 9.4388 6.6999 9.4532C7.29065 9.4756 8.4131 9.5 10.5 9.5C12.5869 9.5 13.7094 9.4756 14.3001 9.4532Z" fill="#0077B6"/>
<path d="M11.3078 5.46435C11.6985 5.44755 11.9866 5.16845 11.9966 4.77755C11.9988 4.6944 12 4.6021 12 4.5C12 4.396 11.9987 4.3022 11.9965 4.21795C11.9864 3.83113 11.7024 3.55489 11.3159 3.53743C10.8836 3.5179 10.1686 3.5 9 3.5C7.83865 3.5 7.1253 3.517 6.6922 3.53564C6.30155 3.55245 6.0134 3.83154 6.0034 4.22245C6.00125 4.3056 6 4.3979 6 4.5C6 4.6021 6.00125 4.6944 6.0034 4.77755C6.0134 5.16845 6.30155 5.44755 6.6922 5.46435C7.1253 5.483 7.83865 5.5 9 5.5C10.1614 5.5 10.8747 5.483 11.3078 5.46435Z" fill="#0077B6"/>
</svg>
