<svg width="15" height="16" viewBox="0 0 15 16" fill="none" xmlns="http://www.w3.org/2000/svg">
<path d="M7.49992 15.3334C3.44983 15.3334 0.166586 12.0502 0.166586 8.00008C0.166586 3.94999 3.44983 0.666748 7.49992 0.666748C11.55 0.666748 14.8333 3.94999 14.8333 8.00008C14.8333 12.0502 11.55 15.3334 7.49992 15.3334Z" fill="#0077B6"/>
<path d="M2.5 8.00008C2.5 7.23538 2.98937 6.67261 3.75403 6.66705C3.77993 6.66685 3.80637 6.66675 3.83333 6.66675C3.8603 6.66675 3.88673 6.66685 3.91263 6.66705C4.6773 6.67261 5.16667 7.23538 5.16667 8.00008C5.16667 8.76478 4.6773 9.32755 3.91263 9.33311C3.88673 9.33331 3.8603 9.33341 3.83333 9.33341C3.80637 9.33341 3.77993 9.33331 3.75403 9.33311C2.98937 9.32755 2.5 8.76478 2.5 8.00008Z" fill="#07BEB8"/>
<path d="M6.16663 8.00008C6.16663 7.23538 6.65599 6.67261 7.42066 6.66705C7.44656 6.66685 7.47299 6.66675 7.49996 6.66675C7.52693 6.66675 7.55336 6.66685 7.57926 6.66705C8.34393 6.67261 8.83329 7.23538 8.83329 8.00008C8.83329 8.76478 8.34393 9.32755 7.57926 9.33311C7.55336 9.33331 7.52693 9.33341 7.49996 9.33341C7.47299 9.33341 7.44656 9.33331 7.42066 9.33311C6.65599 9.32755 6.16663 8.76478 6.16663 8.00008Z" fill="#07BEB8"/>
<path d="M9.83325 8.00008C9.83325 7.23538 10.3226 6.67261 11.0873 6.66705C11.1132 6.66685 11.1396 6.66675 11.1666 6.66675C11.1936 6.66675 11.22 6.66685 11.2459 6.66705C12.0106 6.67261 12.4999 7.23538 12.4999 8.00008C12.4999 8.76478 12.0106 9.32755 11.2459 9.33311C11.22 9.33331 11.1936 9.33341 11.1666 9.33341C11.1396 9.33341 11.1132 9.33331 11.0873 9.33311C10.3226 9.32755 9.83325 8.76478 9.83325 8.00008Z" fill="#07BEB8"/>
</svg>
