<svg width="15" height="12" viewBox="0 0 15 12" fill="none" xmlns="http://www.w3.org/2000/svg">
<path fill-rule="evenodd" clip-rule="evenodd" d="M5.76502 0.333334C4.91172 0.333334 4.15242 0.874687 3.87425 1.68137L3.04659 4.08157C3.00595 4.19943 2.90285 4.2845 2.77971 4.3039C1.81276 4.4562 1.21941 4.63497 0.884154 4.76297C0.63292 4.8589 0.443314 5.05397 0.37201 5.31327C0.275777 5.66323 0.166687 6.29003 0.166687 7.33333C0.166687 8.03947 0.216657 8.5548 0.278794 8.92263C0.36911 9.4573 0.817184 9.7822 1.35762 9.82657C2.29394 9.9035 4.13862 10 7.50002 10C10.8614 10 12.7061 9.9035 13.6424 9.82657C14.1829 9.7822 14.6309 9.4573 14.7213 8.92263C14.7834 8.5548 14.8334 8.03947 14.8334 7.33333C14.8334 6.29003 14.7243 5.66323 14.628 5.31327C14.5567 5.05397 14.3671 4.8589 14.1159 4.76297C13.8855 4.675 13.5332 4.56303 13.0214 4.4522C12.8983 4.42553 12.799 4.3337 12.7655 4.21227L12.1004 1.80147C11.8612 0.934137 11.0722 0.333334 10.1725 0.333334H5.76502Z" fill="#07BEB8"/>
<path d="M4.16669 11.6667C5.27126 11.6667 6.16669 10.7712 6.16669 9.66667C6.16669 8.5621 5.27126 7.66667 4.16669 7.66667C3.06212 7.66667 2.16669 8.5621 2.16669 9.66667C2.16669 10.7712 3.06212 11.6667 4.16669 11.6667Z" fill="#0077B6"/>
<path d="M10.8334 11.6667C11.9379 11.6667 12.8334 10.7712 12.8334 9.66667C12.8334 8.5621 11.9379 7.66667 10.8334 7.66667C9.7288 7.66667 8.83337 8.5621 8.83337 9.66667C8.83337 10.7712 9.7288 11.6667 10.8334 11.6667Z" fill="#0077B6"/>
<path fill-rule="evenodd" clip-rule="evenodd" d="M6.93412 4.4806C6.45199 4.42263 6.05732 4.35637 5.77152 4.3017C5.52936 4.2554 5.43862 3.97337 5.60479 3.7912C6.04159 3.31223 6.83086 2.48057 7.68312 1.74537C7.89912 1.55903 8.22126 1.72613 8.20132 2.0107C8.15776 2.63227 8.10662 3.13767 8.05896 3.53017C8.54109 3.58817 8.93579 3.6544 9.22156 3.70907C9.46372 3.7554 9.55446 4.0374 9.38829 4.2196C8.95149 4.69853 8.16222 5.53023 7.30996 6.26543C7.09396 6.45174 6.77182 6.28463 6.79176 6.0001C6.83532 5.3785 6.88646 4.87313 6.93412 4.4806Z" fill="#0077B6"/>
</svg>
