<svg width="15" height="16" viewBox="0 0 15 16" fill="none" xmlns="http://www.w3.org/2000/svg">
<path d="M0.322509 13.6889C0.404456 14.528 1.0734 15.1401 1.91497 15.1912C3.03579 15.2593 4.86083 15.3333 7.49996 15.3333C10.1391 15.3333 11.9641 15.2593 13.085 15.1912C13.9265 15.1401 14.5955 14.528 14.6774 13.6889C14.7581 12.8632 14.8333 11.6505 14.8333 10C14.8333 7.94457 14.7166 6.5681 14.6181 5.77253C14.5504 5.2254 14.2166 4.7632 13.7337 4.4971C12.2647 3.68753 9.02023 2 7.49996 2C5.97969 2 2.73524 3.68753 1.2662 4.4971C0.783359 4.7632 0.449523 5.2254 0.381803 5.77253C0.283329 6.5681 0.166626 7.94457 0.166626 10C0.166626 11.6505 0.241873 12.8632 0.322509 13.6889Z" fill="#0077B6"/>
<path d="M3.56772 0.738056C2.695 0.774709 1.98926 1.40951 1.91581 2.27992C1.86971 2.82632 1.83325 3.51657 1.83325 4.33333C1.83325 5.56587 1.91626 6.51033 1.9902 7.10707C2.04839 7.57673 2.33558 7.97653 2.75253 8.20037C3.89612 8.8143 6.26472 10 7.49992 10C8.73512 10 11.1037 8.8143 12.2473 8.20037C12.6643 7.97653 12.9515 7.57673 13.0096 7.1071C13.0836 6.51033 13.1666 5.56587 13.1666 4.33333C13.1666 3.51657 13.1301 2.82632 13.084 2.27992C13.0106 1.40951 12.3049 0.774709 11.4321 0.738056C10.5546 0.701203 9.26209 0.666666 7.49992 0.666666C5.73775 0.666666 4.44529 0.701203 3.56772 0.738056Z" fill="#07BEB8"/>
<path d="M9.70003 6.9688C9.95369 6.9592 10.1519 6.78737 10.1626 6.53373C10.1651 6.47437 10.1666 6.40777 10.1666 6.33333C10.1666 6.25787 10.1651 6.1905 10.1625 6.13063C10.1518 5.87933 9.95596 5.70927 9.70463 5.6993C9.31206 5.6837 8.56336 5.66667 7.16663 5.66667C5.77536 5.66667 5.02706 5.68293 4.63323 5.69787C4.37956 5.70747 4.18133 5.8793 4.17063 6.13293C4.16813 6.1923 4.16663 6.2589 4.16663 6.33333C4.16663 6.40777 4.16813 6.47437 4.17063 6.53373C4.18133 6.78737 4.37956 6.9592 4.63323 6.9688C5.02706 6.98373 5.77536 7 7.16663 7C8.55789 7 9.30619 6.98373 9.70003 6.9688Z" fill="#0077B6"/>
<path d="M7.70516 4.30957C7.96559 4.29837 8.15769 4.1123 8.16436 3.8517C8.16579 3.79627 8.16663 3.73473 8.16663 3.66667C8.16663 3.59733 8.16576 3.5348 8.16429 3.47863C8.15756 3.22075 7.96823 3.03659 7.71053 3.02495C7.42233 3.01193 6.94566 3 6.16663 3C5.39239 3 4.91683 3.01133 4.62809 3.02376C4.36766 3.03497 4.17556 3.22103 4.16889 3.48163C4.16746 3.53707 4.16663 3.5986 4.16663 3.66667C4.16663 3.73473 4.16746 3.79627 4.16889 3.8517C4.17556 4.1123 4.36766 4.29837 4.62809 4.30957C4.91683 4.322 5.39239 4.33333 6.16663 4.33333C6.94086 4.33333 7.41643 4.322 7.70516 4.30957Z" fill="#0077B6"/>
</svg>
