<svg width="16" height="16" viewBox="0 0 16 16" fill="none" xmlns="http://www.w3.org/2000/svg">
<path fill-rule="evenodd" clip-rule="evenodd" d="M1.06877 7.8094C0.379492 7.7564 0.09626 7.0677 0.560115 6.5551C1.13996 5.91434 2.05434 4.97727 3.45163 3.70537C5.34833 1.97885 6.65176 1.17785 7.36213 0.820011C7.76839 0.615361 8.23223 0.615331 8.63849 0.819947C9.34893 1.17775 10.6525 1.97875 12.549 3.70537C13.9458 4.9771 14.8601 5.91407 15.44 6.55484C15.904 7.0675 15.6208 7.75644 14.9314 7.80944C14.588 7.83584 14.1693 7.8627 13.6621 7.8876C13.6651 7.92434 13.6666 7.9615 13.6666 7.99904V10.9998C13.6666 12.4801 13.5958 13.5269 13.5267 14.1959C13.4687 14.7572 13.0232 15.1699 12.4602 15.2082C11.6103 15.2659 10.157 15.3332 7.99996 15.3332C5.84293 15.3332 4.38966 15.2659 3.53973 15.2082C2.97674 15.1699 2.5312 14.7572 2.47323 14.1959C2.40414 13.5269 2.33329 12.4801 2.33329 10.9998V7.99904C2.33329 7.9615 2.33484 7.9243 2.33788 7.88757C1.83071 7.86267 1.41203 7.8358 1.06877 7.8094Z" fill="#07BEB8"/>
<path fill-rule="evenodd" clip-rule="evenodd" d="M10.6551 15.2946C10.6622 14.7452 10.6666 14.0327 10.6666 13.5556C10.6666 12.4542 10.6432 11.7089 10.6166 11.2169C10.5865 10.6626 10.2427 10.2003 9.65629 10.1084C9.27025 10.0478 8.73325 10 7.99992 10C7.26659 10 6.72959 10.0478 6.34355 10.1084C5.75712 10.2003 5.41335 10.6626 5.38329 11.2169C5.35662 11.7089 5.33325 12.4542 5.33325 13.5556C5.33325 14.0327 5.33765 14.7452 5.34479 15.2946C6.07165 15.3175 6.95289 15.3333 7.99992 15.3333C9.04695 15.3333 9.92819 15.3175 10.6551 15.2946Z" fill="#0077B6"/>
</svg>
