<svg width="13" height="16" viewBox="0 0 13 16" fill="none" xmlns="http://www.w3.org/2000/svg">
<path d="M0.5 13.3333C0.5 14.4379 3.1863 15.3333 6.5 15.3333C9.8137 15.3333 12.5 14.4379 12.5 13.3333C12.5 12.2288 9.8137 11.3333 6.5 11.3333C3.1863 11.3333 0.5 12.2288 0.5 13.3333Z" fill="#07BEB8"/>
<path d="M11.5 5.73333C11.5 8.70567 8.65547 11.5179 7.25743 12.7205C6.81697 13.0994 6.18303 13.0994 5.74257 12.7205C4.34453 11.5179 1.5 8.70567 1.5 5.73333C1.5 2.93509 3.73857 0.666666 6.5 0.666666C9.26143 0.666666 11.5 2.93509 11.5 5.73333Z" fill="#0077B6"/>
<path d="M8.5 5.66667C8.5 6.77123 7.60457 7.66667 6.5 7.66667C5.39543 7.66667 4.5 6.77123 4.5 5.66667C4.5 4.5621 5.39543 3.66667 6.5 3.66667C7.60457 3.66667 8.5 4.5621 8.5 5.66667Z" fill="#07BEB8"/>
</svg>
