<svg width="16" height="16" viewBox="0 0 16 16" fill="none" xmlns="http://www.w3.org/2000/svg">
<path d="M0.860452 13.5654C0.931168 14.417 1.58305 15.0689 2.43469 15.1396C3.55714 15.2328 5.37624 15.3334 8 15.3334C10.6237 15.3334 12.4429 15.2328 13.5653 15.1396C14.417 15.0689 15.0688 14.417 15.1396 13.5654C15.2328 12.4429 15.3333 10.6238 15.3333 8.00008C15.3333 5.37635 15.2328 3.55721 15.1396 2.43477C15.0688 1.58312 14.417 0.931245 13.5653 0.860528C12.4429 0.767328 10.6237 0.666748 8 0.666748C5.37627 0.666748 3.55714 0.767328 2.43469 0.860528C1.58305 0.931241 0.931168 1.58312 0.860452 2.43477C0.767252 3.55721 0.666672 5.37635 0.666672 8.00008C0.666672 10.6238 0.767252 12.4429 0.860452 13.5654Z" fill="#0077B6"/>
<path fill-rule="evenodd" clip-rule="evenodd" d="M9.81484 15.3163V10.3186H11.6471C11.9439 10.3186 12.2108 10.1226 12.2537 9.82893C12.3253 9.3402 12.2949 8.89583 12.2487 8.58016C12.2065 8.29173 11.9497 8.10136 11.6582 8.10136H9.81484C9.81484 6.18803 10.0899 5.9212 11.6393 5.88836C11.9396 5.882 12.2088 5.68343 12.252 5.3862C12.325 4.8834 12.2959 4.4442 12.2501 4.13553C12.208 3.8517 11.9539 3.6661 11.6669 3.66873C8.9247 3.694 7.363 4.03753 7.363 8.10136H5.9453C5.6665 8.10136 5.41927 8.27663 5.37754 8.55226C5.33237 8.8504 5.305 9.28303 5.38057 9.8093C5.42394 10.1114 5.69534 10.3186 6.00057 10.3186H7.363V15.3314C7.56984 15.3327 7.78214 15.3334 8 15.3334C8.65444 15.3334 9.25884 15.3272 9.81484 15.3163Z" fill="#07BEB8"/>
</svg>
