<svg width="96" height="96" viewBox="0 0 96 96" fill="none" xmlns="http://www.w3.org/2000/svg">
<path d="M48 1.4541C27.7562 1.4541 11.3455 17.8315 11.3455 38.0342C11.3455 58.2369 39.1162 86.1943 46.3125 93.8158C47.2288 94.7881 48.7713 94.7881 49.6875 93.8158C56.8839 86.1885 84.6546 58.0517 84.6546 38.0342C84.6546 18.0167 68.238 1.4541 48 1.4541Z" fill="white"/>
<path fill-rule="evenodd" clip-rule="evenodd" d="M9.8909 38.0347C9.8909 17.0259 26.9557 0 48 0C69.0432 0 86.1091 17.2157 86.1091 38.0347C86.1091 43.352 84.2725 49.0936 81.5104 54.7601C78.7403 60.4432 74.9871 66.1558 71.0346 71.4427C63.9361 80.9377 56.1083 89.1709 51.9943 93.498C51.5284 93.988 51.1102 94.4279 50.746 94.8139C49.2556 96.3954 46.7444 96.3954 45.254 94.8139L46.3095 93.8191L45.2549 94.8149C45.2546 94.8145 45.2543 94.8142 45.254 94.8139C44.8584 94.3949 44.3989 93.9127 43.8837 93.3721C39.7396 89.0237 31.9949 80.8969 24.9663 71.5155C21.0133 66.2393 17.2596 60.5313 14.4892 54.8382C11.7263 49.1608 9.8909 43.3965 9.8909 38.0347ZM48 2.90909C28.5567 2.90909 12.8 18.6381 12.8 38.0347C12.8 42.7741 14.4359 48.0806 17.105 53.5653C19.7664 59.0344 23.4051 64.5801 27.2944 69.7712C34.2114 79.0037 41.8345 87.0042 45.985 91.3601C46.5036 91.9045 46.9681 92.3919 47.3701 92.8177L47.3711 92.8187C47.7131 93.1816 48.2869 93.1816 48.6289 92.8187L48.6295 92.8181C48.9984 92.4271 49.42 91.9836 49.8879 91.4914C54.007 87.1582 61.7167 79.0479 68.7047 69.7008C72.5944 64.4979 76.2336 58.9464 78.8954 53.4855C81.5653 48.0081 83.2 42.7261 83.2 38.0347C83.2 18.8186 67.4328 2.90909 48 2.90909Z" fill="url(#paint0_radial_704_13987)"/>
<path d="M54.5455 36.8043L49.9606 44.6554V39.4199H46.9091L51.4889 31.5645V36.8043H54.5455Z" fill="#07BEB8"/>
<path d="M72.501 42.4768H64.3119C63.6277 42.4768 63.0267 42.9395 62.8776 43.601V43.6097C61.3337 48.1845 56.1448 51.2069 51.2541 51.2069H46.1617C42.4948 51.2069 39.521 48.2753 39.521 44.6604H32.8802C31.6565 44.6604 30.6652 43.6832 30.6652 42.4768C30.6652 41.2704 31.6565 40.2932 32.8802 40.2932H39.521V35.9303H32.8802C31.6565 35.9303 30.6652 34.953 30.6652 33.7466C30.6652 32.5402 31.6565 31.563 32.8802 31.563H39.521C39.521 27.9482 42.4948 25.0165 46.1617 25.0165H51.2541C56.1448 25.0165 61.3337 28.039 62.8776 32.6137V32.6224C63.0267 33.2796 63.632 33.7466 64.3163 33.7466H72.5054C73.6019 33.7466 74.4002 32.7262 74.1283 31.6754C71.2158 20.3249 60.7898 11.9277 48.3724 11.9277C33.7048 11.9277 21.8226 23.6501 21.8182 38.1096C21.8182 52.569 33.7005 64.2914 48.3724 64.2914C60.7898 64.2914 71.2158 55.8942 74.1239 44.5437C74.3915 43.4929 73.5975 42.4725 72.501 42.4725V42.4768Z" fill="#0077B6"/>
<defs>
<radialGradient id="paint0_radial_704_13987" cx="0" cy="0" r="1" gradientUnits="userSpaceOnUse" gradientTransform="translate(51.4909 40.7273) rotate(-141.375) scale(74.1002 58.3539)">
<stop offset="0.237529" stop-color="#07BEB8"/>
<stop offset="1" stop-color="#0077B6"/>
</radialGradient>
</defs>
</svg>
