<svg width="23" height="22" viewBox="0 0 23 22" fill="none" xmlns="http://www.w3.org/2000/svg">
<path d="M0.79067 19.3479C0.896745 20.6255 1.87457 21.6033 3.15203 21.7094C4.8357 21.8491 7.56435 22 11.5 22C15.4356 22 18.1643 21.8491 19.8479 21.7094C21.1255 21.6033 22.1033 20.6255 22.2094 19.3479C22.3491 17.6643 22.5 14.9356 22.5 11C22.5 7.0644 22.3491 4.3357 22.2094 2.65203C22.1033 1.37457 21.1255 0.396745 19.8479 0.29067C18.1643 0.15087 15.4356 0 11.5 0C7.5644 0 4.8357 0.15087 3.15203 0.29067C1.87457 0.39674 0.896745 1.37457 0.79067 2.65203C0.65087 4.3357 0.5 7.0644 0.5 11C0.5 14.9356 0.65087 17.6643 0.79067 19.3479Z" fill="#0077B6"/>
<path fill-rule="evenodd" clip-rule="evenodd" d="M10.0955 7.68945C9.3566 6.3758 8.91515 5.56315 8.65495 5.0712C8.4187 4.6244 8.4374 4.11145 8.8527 3.82342C8.9427 3.76101 9.04695 3.6946 9.1676 3.62494C9.28825 3.55528 9.39785 3.4982 9.49695 3.45148C9.954 3.23585 10.4079 3.47664 10.6767 3.90464C10.8707 4.21355 11.1449 4.6586 11.5271 5.2935C11.6103 5.15445 11.6936 5.0154 11.7768 4.8763L11.7782 4.87395L11.7793 4.87225C11.9484 4.5897 12.1176 4.30715 12.2867 4.02455C12.5826 3.53013 13.0977 3.24291 13.6111 3.50439C13.6804 3.53966 13.7542 3.57964 13.8327 3.62494C13.9111 3.67024 13.9826 3.71417 14.0478 3.75652C14.531 4.07045 14.5397 4.66005 14.2597 5.1636C14.0325 5.5721 13.8055 5.9807 13.5786 6.38935C12.3485 8.6042 11.1184 10.8191 9.8513 13.013C10.15 13.0097 10.4487 13.007 10.7473 13.0049C11.2415 13.0015 11.7425 13.1061 12.1233 13.421C12.6709 13.8739 13.0543 14.4318 13.2933 14.855C13.4638 15.1569 13.2361 15.4977 12.8893 15.4978C10.4933 15.4986 8.0974 15.4574 5.7016 15.4163C5.17405 15.4072 4.64655 15.3981 4.11903 15.3895C3.5429 15.3801 3.03665 15.0778 3.00637 14.5024C3.00228 14.4247 3 14.3408 3 14.2502C3 14.1596 3.00228 14.0757 3.00637 13.9981C3.03665 13.4227 3.5429 13.1204 4.11902 13.1105C4.7288 13.1 5.33865 13.0884 5.9485 13.0768H5.9486H5.94865H5.9487C6.28405 13.0704 6.6194 13.0641 6.95475 13.0579C7.9827 11.2571 9.0349 9.4708 10.0955 7.68945ZM16.121 17.9482C16.4177 18.4421 16.9326 18.7294 17.4461 18.4679C17.5153 18.4327 17.5891 18.3926 17.6676 18.3474C17.7461 18.3021 17.8176 18.2582 17.8827 18.2158C18.3659 17.9019 18.3747 17.3123 18.0947 16.8087C17.8449 16.3591 17.5955 15.9095 17.346 15.4598C18.1026 15.4462 18.6341 15.431 19.0034 15.4173C19.5085 15.3986 19.9438 15.1258 19.9855 14.6222C19.9946 14.513 20 14.3895 20 14.2502C20 14.1109 19.9946 13.9874 19.9855 13.8783C19.9438 13.3746 19.5089 13.1019 19.0038 13.0832C18.4445 13.0624 17.5128 13.0382 15.9907 13.0213C15.2663 11.7232 14.5366 10.4282 13.7928 9.1411C13.6191 8.84035 13.2093 8.814 13.0363 9.11515C12.6838 9.72865 12.2599 10.7426 12.5045 11.7892C12.5376 11.9307 12.6 12.0635 12.6735 12.1889C13.4968 13.5934 14.3377 14.9882 15.1785 16.3827V16.3828H15.1785V16.3828C15.493 16.9045 15.8075 17.4261 16.121 17.9482ZM7.3977 17.1656C7.4576 17.0671 7.44355 16.9381 7.3518 16.8683C6.7722 16.4267 5.8531 16.3486 5.3947 16.3389C5.22095 16.3352 5.065 16.4343 4.98315 16.5876C4.9259 16.6949 4.8743 16.7924 4.828 16.8807C4.5874 17.3391 4.60765 17.8679 5.0347 18.1606C5.12075 18.2196 5.21945 18.2821 5.33265 18.3474C5.4533 18.4171 5.5629 18.4741 5.66195 18.5209C6.11905 18.7365 6.57305 18.4956 6.8418 18.0676C6.98185 17.8446 7.1637 17.5507 7.3977 17.1656Z" fill="#07BEB8"/>
</svg>
