<?xml version="1.0" encoding="utf-8"?>
<!-- Generator: Adobe Illustrator 21.0.2, SVG Export Plug-In . SVG Version: 6.00 Build 0)  -->
<svg version="1.2" baseProfile="tiny" id="Layer_1" xmlns="http://www.w3.org/2000/svg" xmlns:xlink="http://www.w3.org/1999/xlink"
	 x="0px" y="0px" viewBox="0 0 18 10.4" xml:space="preserve">
<path fill="#07BEB8" d="M9.3,4.8c-0.2,0.1-0.4,0.1-0.6,0L3.5,0.7C3,0.3,2.4,0.1,1.8,0.4C1.6,0.6,1.3,0.8,1,1
	C0.7,1.3,0.5,1.6,0.4,1.8C0.1,2.4,0.2,3.1,0.7,3.6c2.2,2.5,5.2,5.1,7.2,6.4c0.7,0.4,1.6,0.4,2.3-0.1c2-1.3,4.9-3.8,7.2-6.3
	c0.4-0.5,0.6-1.2,0.3-1.7C17.5,1.6,17.3,1.3,17,1c-0.3-0.3-0.6-0.5-0.8-0.6c-0.5-0.3-1.2-0.2-1.7,0.2L9.3,4.8z"/>
</svg>
