<?xml version="1.0" encoding="utf-8"?>
<!-- Generator: Adobe Illustrator 21.0.2, SVG Export Plug-In . SVG Version: 6.00 Build 0)  -->
<svg version="1.2" baseProfile="tiny" id="Layer_1" xmlns="http://www.w3.org/2000/svg" xmlns:xlink="http://www.w3.org/1999/xlink"
	 x="0px" y="0px" viewBox="0 0 18 10.4" xml:space="preserve">
<path fill="#07BEB8" d="M14.5,9.8c0.5,0.4,1.1,0.5,1.7,0.2c0.3-0.2,0.6-0.4,0.8-0.6c0.3-0.3,0.5-0.5,0.6-0.8
	c0.3-0.6,0.2-1.2-0.3-1.7c-2.3-2.5-5.2-5-7.2-6.3C9.4,0.2,8.6,0.1,7.8,0.6c-2,1.2-4.9,3.9-7.2,6.4C0.2,7.4,0.1,8.1,0.4,8.6
	C0.5,8.9,0.7,9.2,1,9.5c0.3,0.3,0.6,0.5,0.8,0.6c0.5,0.3,1.2,0.2,1.7-0.2l5.2-4.1c0.2-0.1,0.4-0.1,0.6,0L14.5,9.8z"/>
</svg>
