<svg width="20" height="20" viewBox="0 0 20 20" fill="none" xmlns="http://www.w3.org/2000/svg">
<path d="M10 20C15.5228 20 20 15.5228 20 10C20 4.47715 15.5228 0 10 0C4.47715 0 0 4.47715 0 10C0 15.5228 4.47715 20 10 20Z" fill="#07BEB8"/>
<path d="M12.6196 5.26445C13.02 4.89595 13.6325 4.916 14.0154 5.30315L14.5907 5.8848C14.9736 6.2719 14.9934 6.8912 14.6289 7.29605C14.0863 7.89875 13.2282 8.83575 12.1639 9.9431C13.2788 11.1 14.1773 12.0807 14.7384 12.704C15.1029 13.1088 15.0831 13.7281 14.7002 14.1152L14.1249 14.6969C13.742 15.084 13.1295 15.1041 12.7291 14.7356C12.1129 14.1685 11.1435 13.2606 10 12.1341C8.85645 13.2606 7.88705 14.1685 7.2709 14.7356C6.8705 15.1041 6.258 15.084 5.8751 14.6969L5.2998 14.1152C4.9169 13.7281 4.8971 13.1088 5.2616 12.704C5.8227 12.0807 6.72115 11.1 7.83605 9.9431C6.7718 8.83575 5.9137 7.89875 5.37105 7.29605C5.00655 6.8912 5.0264 6.2719 5.4093 5.8848L5.9846 5.30315C6.3675 4.916 6.98 4.89595 7.3804 5.26445C7.9768 5.81335 8.9041 6.6815 10 7.75825C11.0959 6.6815 12.0232 5.81335 12.6196 5.26445Z" fill="#0077B6"/>
</svg>
