<svg width="18" height="23" viewBox="0 0 18 23" fill="none" xmlns="http://www.w3.org/2000/svg">
<path fill-rule="evenodd" clip-rule="evenodd" d="M9.3129 5.25887C9.13015 5.40542 8.8702 5.40542 8.68745 5.25887L3.52415 1.11964C3.0366 0.728748 2.3832 0.575973 1.8367 0.879073C1.56379 1.03043 1.26657 1.2335 1.00063 1.49944C0.744131 1.75594 0.546101 2.04155 0.396536 2.30639C0.0800312 2.86686 0.243866 3.54217 0.673331 4.02161C2.914 6.52297 5.8446 9.15332 7.84215 10.3979C8.5502 10.8391 9.4284 10.7933 10.1248 10.3338C12.1224 9.01577 15.072 6.50812 17.325 4.01983C17.7571 3.54268 17.9206 2.86684 17.6041 2.30629C17.4546 2.04136 17.2566 1.75568 17.0001 1.49924C16.7342 1.23334 16.4369 1.0303 16.1639 0.878953C15.6174 0.575958 14.964 0.728743 14.4764 1.11961L9.3129 5.25887ZM9.3129 17.7396C9.13015 17.5931 8.8702 17.5931 8.68745 17.7396L3.52415 21.8788C3.0366 22.2697 2.3832 22.4225 1.8367 22.1194C1.56379 21.968 1.26657 21.765 1.00063 21.499C0.744131 21.2425 0.546101 20.9569 0.396536 20.6921C0.0800312 20.1316 0.243866 19.4563 0.673331 18.9769C2.914 16.4755 5.8446 13.8452 7.84215 12.6005C8.5502 12.1593 9.4284 12.2052 10.1248 12.6647C12.1224 13.9827 15.072 16.4904 17.325 18.9786C17.7571 19.4558 17.9206 20.1316 17.6041 20.6922C17.4546 20.9571 17.2566 21.2428 17.0001 21.4992C16.7342 21.7651 16.4369 21.9682 16.1639 22.1195C15.6174 22.4225 14.964 22.2697 14.4764 21.8789L9.3129 17.7396Z" fill="#07BEB8"/>
</svg>
