<svg width="20" height="22" viewBox="0 0 20 22" fill="none" xmlns="http://www.w3.org/2000/svg">
<path d="M0.270255 1.73597C0.358795 0.399 1.74611 -0.3905 2.95902 0.19687C9.3407 3.2873 15.7324 7.2291 19.1095 9.3947C20.2969 10.156 20.2969 11.844 19.1095 12.6053C15.7324 14.7709 9.3407 18.7127 2.95902 21.8032C1.74611 22.3905 0.358795 21.601 0.270255 20.264C0.138735 18.278 0 15.1899 0 11C0 6.81005 0.138735 3.72204 0.270255 1.73597Z" fill="#07BEB8"/>
<path fill-rule="evenodd" clip-rule="evenodd" d="M0.96582 0.397625L11.4994 11.0001L15.4376 7.0981C11.9849 4.99095 7.4693 2.38123 2.95863 0.19687C2.25788 -0.14248 1.49891 -0.0222449 0.96582 0.397625ZM15.4373 14.9021L11.4993 11.0001L0.96611 21.6026C1.49918 22.0223 2.258 22.1424 2.95863 21.8032C7.46915 19.6189 11.9846 17.0093 15.4373 14.9021Z" fill="#0077B6"/>
</svg>
