<svg width="15" height="16" viewBox="0 0 15 16" fill="none" xmlns="http://www.w3.org/2000/svg">
<path d="M4.76863 0.689986C4.76863 0.689986 3.87129 1.03333 2.22194 2.68333C0.578636 4.3273 0.234026 5.22657 0.231523 5.23313C0.191473 6.0165 0.166626 6.93263 0.166626 8C0.166626 11.1847 0.387826 13.0229 0.574056 14.0062C0.693696 14.6379 1.18641 15.0709 1.82538 15.1399C2.68789 15.233 4.20989 15.3333 6.76399 15.3333C9.31809 15.3333 10.8401 15.233 11.7026 15.1399C12.3416 15.0709 12.8343 14.6379 12.9539 14.0062C13.1402 13.0229 13.3614 11.1847 13.3614 8C13.3614 4.8153 13.1402 2.97707 12.9539 1.99376C12.8343 1.36206 12.3416 0.929089 11.7026 0.860113C10.8401 0.767006 9.31809 0.666666 6.76399 0.666666C6.01273 0.666666 5.35076 0.675363 4.76863 0.689986Z" fill="#07BEB8"/>
<path d="M0.231812 5.23327C1.28723 5.49883 2.53333 5.51647 3.6096 5.18753C4.06464 5.04847 4.41944 4.69387 4.573 4.24337C4.95561 3.12112 5.05011 1.74745 4.76894 0.690104C4.76894 0.690104 3.87157 1.03345 2.22224 2.68345C0.572898 4.33347 0.231812 5.23327 0.231812 5.23327Z" fill="#0077B6"/>
<path d="M14.4139 8.21097C14.9732 7.65167 14.9732 6.74483 14.4139 6.18553L13.3145 5.08613C12.7552 4.52683 11.8484 4.52683 11.2891 5.08617L7.25284 9.12237C6.98427 9.39097 6.83337 9.75523 6.83337 10.1351V11.9506C6.83337 12.3461 7.15397 12.6667 7.54947 12.6667H9.36494C9.74477 12.6667 10.1091 12.5158 10.3777 12.2472L14.4139 8.21097Z" fill="#0077B6"/>
</svg>
