<svg width="16" height="16" viewBox="0 0 16 16" fill="none" xmlns="http://www.w3.org/2000/svg">
<path d="M8.00004 15.3333C3.94995 15.3333 0.666708 12.0501 0.666708 8C0.666708 3.94991 3.94995 0.666666 8.00004 0.666666C12.0501 0.666666 15.3334 3.94991 15.3334 8C15.3334 12.0501 12.0501 15.3333 8.00004 15.3333Z" fill="#07BEB8"/>
<path d="M7.40819 3.80763C7.65696 3.32802 8.34303 3.32802 8.59179 3.80763L9.63779 5.8243L11.8481 6.2595C12.3558 6.35947 12.561 6.97457 12.215 7.35937L10.65 9.09987L10.938 11.4337C11.0031 11.9615 10.4544 12.3494 9.97863 12.1119L7.99999 11.1243L6.02136 12.1119C5.54553 12.3494 4.99686 11.9615 5.06199 11.4337L5.34999 9.09987L3.78499 7.35937C3.43899 6.97457 3.64423 6.35947 4.15193 6.2595L6.36219 5.8243L7.40819 3.80763Z" fill="#0077B6"/>
</svg>
