<svg width="16" height="16" viewBox="0 0 16 16" fill="none" xmlns="http://www.w3.org/2000/svg">
<path d="M0.765248 12.1403C0.855188 13.847 2.15303 15.1449 3.8598 15.2348C4.9169 15.2905 6.28694 15.3334 8 15.3334C9.71304 15.3334 11.0831 15.2905 12.1402 15.2348C13.847 15.1449 15.1448 13.847 15.2348 12.1403C15.2905 11.0832 15.3333 9.71315 15.3333 8.00008C15.3333 6.28701 15.2905 4.91698 15.2348 3.85988C15.1448 2.1531 13.847 0.855265 12.1402 0.765328C11.0831 0.709625 9.71307 0.666748 8 0.666748C6.28697 0.666748 4.9169 0.709621 3.8598 0.765325C2.15303 0.855265 0.855188 2.1531 0.765252 3.85988C0.709548 4.91698 0.666672 6.28701 0.666672 8.00008C0.666672 9.71311 0.709548 11.0832 0.765248 12.1403Z" fill="#0077B6"/>
<path fill-rule="evenodd" clip-rule="evenodd" d="M8.00013 12.0002C10.2093 12.0002 12.0002 10.2093 12.0002 8.00013C12.0002 5.7909 10.2093 4 8.00013 4C5.7909 4 4 5.7909 4 8.00013C4 10.2093 5.7909 12.0002 8.00013 12.0002ZM8 10.3333C9.28867 10.3333 10.3333 9.28867 10.3333 8C10.3333 6.71133 9.28867 5.66667 8 5.66667C6.71133 5.66667 5.66667 6.71133 5.66667 8C5.66667 9.28867 6.71133 10.3333 8 10.3333Z" fill="#07BEB8"/>
<path d="M12.6667 4.3335C13.219 4.3335 13.6667 3.88578 13.6667 3.3335C13.6667 2.78121 13.219 2.3335 12.6667 2.3335C12.1144 2.3335 11.6667 2.78121 11.6667 3.3335C11.6667 3.88578 12.1144 4.3335 12.6667 4.3335Z" fill="#07BEB8"/>
</svg>
