<svg width="16" height="16" viewBox="0 0 16 16" fill="none" xmlns="http://www.w3.org/2000/svg">
<path d="M0.860437 13.5654C0.931153 14.417 1.58303 15.0689 2.43468 15.1396C3.55712 15.2328 5.37622 15.3334 7.99999 15.3334C10.6237 15.3334 12.4429 15.2328 13.5653 15.1396C14.417 15.0689 15.0688 14.417 15.1396 13.5654C15.2328 12.4429 15.3333 10.6238 15.3333 8.00008C15.3333 5.37635 15.2328 3.55721 15.1396 2.43477C15.0688 1.58312 14.417 0.931245 13.5653 0.860528C12.4429 0.767328 10.6237 0.666748 7.99999 0.666748C5.37626 0.666748 3.55712 0.767328 2.43468 0.860528C1.58304 0.931241 0.931153 1.58312 0.860437 2.43477C0.767237 3.55721 0.666656 5.37635 0.666656 8.00008C0.666656 10.6238 0.767237 12.4429 0.860437 13.5654Z" fill="#0077B6"/>
<path fill-rule="evenodd" clip-rule="evenodd" d="M5.82456 4.24578C5.82456 4.74962 5.41612 5.15806 4.91228 5.15806C4.40844 5.15806 4 4.74962 4 4.24578C4 3.74194 4.40844 3.3335 4.91228 3.3335C5.41612 3.3335 5.82456 3.74194 5.82456 4.24578ZM12.3212 6.87194C11.8079 6.35868 11.1118 6.07034 10.386 6.07034C9.66011 6.07034 8.96398 6.35868 8.45073 6.87194C7.93747 7.3852 7.64912 8.08132 7.64912 8.80718V12.0002H9.47368V8.80718C9.47368 8.56523 9.5698 8.33319 9.74089 8.1621C9.91197 7.99101 10.144 7.8949 10.386 7.8949C10.6279 7.8949 10.86 7.99101 11.031 8.1621C11.2021 8.33319 11.2982 8.56523 11.2982 8.80718V12.0002H13.1228V8.80718C13.1228 8.08132 12.8345 7.3852 12.3212 6.87194ZM5.82456 12.0002V6.52648H4V12.0002H5.82456Z" fill="#07BEB8"/>
</svg>
