<svg width="16" height="16" viewBox="0 0 16 16" fill="none" xmlns="http://www.w3.org/2000/svg">
<path d="M7.99999 0.666748C12.0501 0.666748 15.3333 3.94998 15.3333 8.00008C15.3333 12.0502 12.0501 15.3334 7.99999 15.3334C3.94989 15.3334 0.666656 12.0502 0.666656 8.00008C0.666656 3.94998 3.94989 0.666748 7.99999 0.666748Z" fill="#0077B6"/>
<path d="M9.11152 4.36284C7.99162 5.15607 8.17402 6.2896 8.24332 6.67027C6.30778 6.5493 4.99288 5.46414 4.39028 4.84107C4.21205 4.65677 3.88682 4.7015 3.83475 4.95254C3.46562 6.73204 5.15148 8.31134 5.15148 8.31134C4.86848 8.31134 4.33472 8.22137 3.96392 8.1517C3.75562 8.11257 3.56262 8.27347 3.62062 8.4773C3.93232 9.5733 5.38902 10.7309 6.35192 10.7037C5.84745 11.2082 5.23392 11.4584 4.69205 11.5789C4.35125 11.6547 4.21152 12.1822 4.53722 12.3079C8.23375 13.7341 12.5331 10.7512 12.3068 6.1381L12.9659 5.14977C13.1179 4.92193 12.9454 4.6182 12.6719 4.6319L11.7539 4.67787C11.31 4.12443 10.1271 3.6435 9.11152 4.36284Z" fill="#07BEB8"/>
</svg>
