<svg width="16" height="12" viewBox="0 0 16 12" fill="none" xmlns="http://www.w3.org/2000/svg">
<path d="M0.836687 1.69197C0.91477 0.845533 1.58004 0.21673 2.42811 0.158993C3.55002 0.0826134 5.37112 0 7.99999 0C10.6289 0 12.45 0.0826134 13.5719 0.158993C14.4199 0.21673 15.0852 0.845533 15.1633 1.69197C15.2491 2.6215 15.3333 4.03493 15.3333 6C15.3333 7.96507 15.2491 9.3785 15.1633 10.308C15.0852 11.1545 14.4199 11.7833 13.5719 11.841C12.45 11.9174 10.6289 12 7.99999 12C5.37112 12 3.55002 11.9174 2.42811 11.841C1.58004 11.7833 0.91477 11.1545 0.836687 10.308C0.750937 9.3785 0.666656 7.96507 0.666656 6C0.666656 4.03493 0.750937 2.6215 0.836687 1.69197Z" fill="#0077B6"/>
<path d="M5.80556 4.13311C5.89879 3.53808 6.39769 3.19731 6.93502 3.38481C7.37546 3.53851 7.99646 3.79458 8.84312 4.22128C9.54249 4.57371 10.0879 4.88735 10.5047 5.14938C11.165 5.56445 11.165 6.43538 10.5047 6.85045C10.0879 7.11248 9.54249 7.42611 8.84312 7.77855C7.99646 8.20525 7.37546 8.46131 6.93502 8.61501C6.39769 8.80251 5.89879 8.46175 5.80556 7.86671C5.73149 7.39378 5.66666 6.76218 5.66666 5.99991C5.66666 5.23765 5.73149 4.60605 5.80556 4.13311Z" fill="#07BEB8"/>
</svg>
